:SAMPLES-PER-SECOND 30
:FULLY-SPECIFIED
:DEGREES
269
root  37.7918 38.2261 9.48237 70.1936 88.3094 47.0076
RightUpLeg  -50.6065 -18.9719 10.2613
RightLeg  28.2313 -2.5112 -1.69686
RightFoot  -1.64851 0.612222 -7.33498
RightToes  0.00048216 0.542163 -0.142577
Spine  68.9967 -5.23906 7.23309
Spine1  4.19289 1.13886 -5.78708
HEad  -43.3175 -6.45056 0.324819
LeftShoulder1  11.3687 -27.4724 -30.4164
LeftArm  -63.0202 -70.2152 11.0521
LeftForeArm  0.718316 -13.5361 -2.91348
LeftHand  -0.25398 0.0180481 5.50724
RightShoulder  4.77321 16.2843 17.497
RightArm  -63.1192 64.4183 -16.1619
RightForeArm  -17.58 8.38214 5.41669
RightHand  0.250205 7.28784 1.82378
LeftUpLeg  -53.4493 27.3284 -23.2471
LeftLeg  20.1668 -5.4071 -1.82153
LeftFoot  4.59787 -1.28679 8.97192
LeftToes  1.06246e-005 4.65855e-005 -8.185e-006
270
root  37.676 38.4988 9.5164 66.5399 88.5046 45.7696
RightUpLeg  -46.7968 -19.5072 9.68167
RightLeg  25.8651 -2.40754 -1.50049
RightFoot  -0.778621 0.680254 -7.39953
RightToes  0.00048216 0.542163 -0.142577
Spine  68.1638 -5.2372 7.53641
Spine1  4.20521 1.30862 -5.58394
HEad  -42.1102 -6.4335 -0.234341
LeftShoulder1  11.9009 -27.2739 -32.3967
LeftArm  -56.2212 -69.4951 4.87931
LeftForeArm  1.67989 -13.1004 -3.27744
LeftHand  -0.25398 0.0180481 5.50724
RightShoulder  5.18136 16.4256 19.5171
RightArm  -58.7958 64.5639 -12.93
RightForeArm  -18.0663 7.82513 5.97639
RightHand  0.164061 6.86728 1.10007
LeftUpLeg  -49.3213 28.2922 -21.4401
LeftLeg  17.463 -5.39117 -1.98295
LeftFoot  5.6944 -1.31048 8.50131
LeftToes  1.06246e-005 4.65855e-005 -8.185e-006
271
root  37.584 38.7438 9.55917 64.2174 88.7115 45.7212
RightUpLeg  -43.2188 -20.1844 9.20234
RightLeg  23.6835 -2.18034 -1.27654
RightFoot  -0.0451831 0.72295 -7.29737
RightToes  0.00048216 0.542163 -0.142577
Spine  66.942 -5.14874 7.83777
Spine1  4.45885 1.44566 -5.26342
HEad  -40.6279 -6.44667 -0.788888
LeftShoulder1  12.3582 -27.0724 -34.1434
LeftArm  -50.1289 -68.559 -0.646241
LeftForeArm  2.39754 -12.4779 -3.63899
LeftHand  -0.25398 0.0180481 5.50724
RightShoulder  5.64735 16.5959 21.762
RightArm  -54.5735 64.4345 -10.416
RightForeArm  -18.9369 7.31081 6.66363
RightHand  0.0937059 6.32948 0.496235
LeftUpLeg  -43.6473 25.9906 -16.0174
LeftLeg  14.6534 -0.941276 -2.7737
LeftFoot  6.74982 -1.33024 8.08202
LeftToes  1.06246e-005 4.65855e-005 -8.185e-006
272
root  37.5185 38.9679 9.6079 64.3158 88.8758 48.0596
RightUpLeg  -39.6915 -21.0245 8.66644
RightLeg  21.6145 -1.79316 -0.994716
RightFoot  0.531402 0.734957 -7.01869
RightToes  0.00048216 0.542163 -0.142577
Spine  65.5627 -5.1004 7.91292
Spine1  5.15332 1.34542 -4.90738
HEad  -39.2497 -6.12128 -1.28069
LeftShoulder1  12.5519 -26.5857 -35.4348
LeftArm  -45.803 -67.6465 -3.9966
LeftForeArm  2.09864 -11.5103 -4.07789
LeftHand  -0.25398 0.0180481 5.50724
RightShoulder  5.98111 16.6055 23.5029
RightArm  -51.3312 64.6987 -8.21151
RightForeArm  -19.1221 6.64713 7.1729
RightHand  0.0662727 5.97675 0.257394
LeftUpLeg  -37.635 21.039 -9.38282
LeftLeg  11.6679 6.13651 -4.03518
LeftFoot  7.76314 -1.36039 7.7887
LeftToes  1.06246e-005 4.65855e-005 -8.185e-006
273
root  37.4833 39.1746 9.65124 61.8465 89.0677 47.8329
RightUpLeg  -35.9355 -21.3081 7.68443
RightLeg  19.5548 -2.02434 -0.649461
RightFoot  1.08847 0.74002 -6.71421
RightToes  0.00048216 0.542163 -0.142577
Spine  64.6201 -5.17987 7.93995
Spine1  4.92592 1.15559 -4.75116
HEad  -37.1224 -5.60404 -1.61953
LeftShoulder1  12.7329 -26.038 -36.798
LeftArm  -41.4557 -66.2606 -7.20432
LeftForeArm  1.50446 -10.526 -4.58876
LeftHand  -0.25398 0.0180481 5.50724
RightShoulder  6.22242 16.6137 24.7516
RightArm  -47.058 64.7156 -4.13017
RightForeArm  -18.8224 6.07852 7.55707
RightHand  0.0640393 5.58851 0.271289
LeftUpLeg  -32.4885 15.5757 -3.94424
LeftLeg  8.68284 12.9137 -5.40518
LeftFoot  8.64156 -1.3807 7.52563
LeftToes  1.06246e-005 4.65855e-005 -8.185e-006
